<svg width="456" height="80" fill="none" xmlns="http://www.w3.org/2000/svg">
  <path d="M135.962 55.81v16.217h-7.971V23.919h6.215l.945 4.19c2.162-3.109 5.404-4.596 9.052-4.596 7.565 0 12.024 5.136 12.024 15.676 0 11.216-5.404 17.433-15.131 17.433-1.621 0-3.513-.27-5.134-.811zM148.121 40c0-6.486-2.162-9.595-6.485-9.595-2.026 0-4.188 1.081-5.674 2.838V49.73c1.081.54 2.432.81 3.783.81 5.674 0 8.376-3.378 8.376-10.54zM164.197 10.81c3.243 0 5.269 2.028 5.269 4.866 0 2.838-1.891 4.73-5.269 4.73-3.107 0-5.268-1.892-5.268-4.73 0-2.838 2.161-4.865 5.268-4.865zm-3.917 13.244h7.97v32.027h-7.97V24.054zM196.486 54.73c-1.351.946-4.864 2.027-8.376 2.027-10.133 0-15.807-5.811-15.807-16.216 0-9.73 4.999-17.027 15.942-17.027 3.512 0 6.755.81 8.241 1.756v6.757c-2.432-1.216-4.729-1.757-7.161-1.757-5.944 0-8.916 3.92-8.916 9.865 0 6.487 3.242 9.865 9.052 9.865 2.566 0 4.728-.54 7.16-1.892v6.622h-.135zM211.887 42.973h-3.513v12.973h-7.971V7.973h7.971v28.514h3.918l8.106-12.433h8.781l-10.537 15.27 10.672 16.622h-9.457l-7.97-12.973z" fill="#ffffff"/>
  <path d="M228.774 70.54v-6.35c1.081.405 2.972.54 4.323.54 4.593 0 6.89-1.352 8.916-7.433l.406-1.216h-3.243l-9.862-32.027h8.511l6.89 23.378 7.161-23.378h7.835l-10.808 34.19c-2.972 9.459-7.565 13.107-15.266 13.107-1.621 0-3.647-.27-4.863-.81zM259.846 40.27c0-10.27 4.999-16.757 14.996-16.757 9.457 0 14.456 5.946 14.456 16.352 0 10.27-4.999 16.892-14.996 16.892-9.187-.135-14.456-5.811-14.456-16.487zm21.211-.135c0-7.297-2.027-10.27-6.485-10.27-4.323 0-6.35 3.243-6.35 10.27 0 7.297 2.027 10.27 6.35 10.27 4.323 0 6.485-3.108 6.485-10.27zM312.129 52.838c-1.891 2.297-4.728 3.784-8.646 3.784-6.62 0-10.132-3.92-10.132-10.946V24.054h8.105v20.27c0 3.92 1.486 5.406 4.864 5.406 1.891 0 3.918-.811 5.269-2.162V24.054h7.97v23.649c0 1.892.676 2.567 2.027 2.567.81 0 1.486-.135 2.026-.54v5.675c-1.216.811-3.107 1.217-5.268 1.217-3.378 0-5.269-1.217-6.215-3.784zM327.395 24.054h6.62l.81 5.27c1.081-3.784 3.378-5.81 7.431-5.81 1.216 0 2.431.135 3.377.54v7.703h-2.161c-3.378 0-5.539.54-7.971 2.702v21.622h-7.971V24.054h-.135zM375.084 24.054h6.62l.811 5.27c1.081-3.784 3.377-5.946 7.43-5.946 1.216 0 2.432.136 3.378.54v7.704h-2.162c-3.377 0-5.539.54-7.971 2.702v21.622h-7.97V24.054h-.136zM363.601 56.622c-7.43 0-10.673-3.649-10.673-10.946V30h-4.323v-2.162l1.081-3.784h3.648l1.351-8.243h7.025l-.676 8.243h9.322L368.87 30h-7.971v14.46c0 3.783 1.351 5.405 4.999 5.405 1.891 0 3.783-.54 5.269-1.216V55c-1.486.81-4.594 1.622-7.566 1.622zM413.317 53.243c-1.621 2.162-4.323 3.514-7.971 3.514-5.944 0-9.997-3.649-9.997-9.595 0-6.216 3.783-9.865 12.699-9.865h4.729v-1.216c0-4.054-1.757-5.405-6.755-5.405-2.972 0-6.35.675-8.782 1.621v-6.621c2.297-1.081 6.485-1.892 10.538-1.892 8.781 0 12.969 4.189 12.969 11.621v12.703c0 1.757.676 2.568 2.027 2.568.675 0 1.351-.136 1.891-.54v5.404c-1.216.811-3.107 1.217-5.269 1.217-3.107-.135-5.133-1.352-6.079-3.514zm-.676-4.46v-6.756h-3.242c-4.593 0-6.349 1.757-6.349 4.46 0 2.702 1.756 4.189 4.728 4.189 2.026.135 3.648-.54 4.863-1.892zM432.501 10.81c3.242 0 5.269 2.028 5.269 4.866 0 2.838-1.892 4.73-5.269 4.73-3.107 0-5.269-1.892-5.269-4.73 0-2.838 2.162-4.865 5.269-4.865zm-3.918 13.244h7.971v32.027h-7.971V24.054zM441.822 7.973h8.106v39.324c0 2.298.676 3.108 2.567 3.108.676 0 1.486-.135 2.162-.54v5.54c-1.081.676-3.378 1.081-5.269 1.081-4.728 0-7.43-2.162-7.43-7.567V7.973h-.136z" fill="#ffffff"/>
  <path d="M109.621 33.784L84.444 4.054C82.674 1.892 79.952 0 76.822 0h-61.65C9.728 0 6.87 3.649 6.325 8.919L.065 71.08C-.615 75.811 4.148 80 9.047 80h22.864l6.533-51.892c.136-1.622.408-2.567 1.36-3.378.953-.811 2.042-1.216 3.403-1.216.953 0 1.633.135 2.314.54L75.87 36.081c1.769.676 2.994 2.297 2.994 4.19 0 1.891-1.225 3.513-2.994 4.188L51.237 55.27c-3.403 2.027-4.628 3.514-5.716 8.108L43.615 80H72.74c4.082 0 5.58-2.027 7.62-4.054l29.261-29.73c3.13-3.648 3.13-8.784 0-12.432z" fill="#ffffff"/>
</svg>
